Coordinates
version=1
nRows=26
nColumns=24
inDegrees=yes

Units are S.I. units (second, meters, Newtons, ...)
Angles are in degrees.

endheader
time	pelvis_tilt	pelvis_list	pelvis_rotation	pelvis_tx	pelvis_ty	pelvis_tz	hip_flexion_r	hip_adduction_r	hip_rotation_r	knee_angle_r	ankle_angle_r	subtalar_angle_r	mtp_angle_r	hip_flexion_l	hip_adduction_l	hip_rotation_l	knee_angle_l	ankle_angle_l	subtalar_angle_l	mtp_angle_l	lumbar_extension	lumbar_bending	lumbar_rotation
      4.82000000	     -3.79321448	      9.49738052	     -4.91367060	      0.47644914	      1.01437268	     -0.20725918	     11.16998513	    -13.78250807	     -4.69775705	    -63.85849989	     -7.37315253	     -1.49299232	      0.00000000	     18.53200219	     11.73335565	     -6.44252074	    -14.89159694	      7.84952317	     -7.52265814	      0.00000000	     -6.04582927	    -12.98644856	      0.17739190
      4.82500000	     -3.72826324	      9.47506861	     -4.89372329	      0.48276818	      1.01538511	     -0.20781643	     11.88956614	    -13.73248532	     -4.63282390	    -64.56966990	     -6.20227958	     -1.50242705	      0.00000000	     17.89514741	     11.84124542	     -6.20844073	    -14.55939644	      8.04116513	     -7.59885118	      0.00000000	     -6.13525871	    -12.90380429	     -0.03211740
      4.83000000	     -3.66689953	      9.44020190	     -4.85314453	      0.48909127	      1.01641953	     -0.20843138	     12.59416004	    -13.67542253	     -4.60784152	    -65.20022744	     -4.99578564	     -1.45209178	      0.00000000	     17.23105890	     11.95364567	     -5.87480018	    -14.16973143	      8.13719312	     -7.80830848	      0.00000000	     -6.21593986	    -12.79886583	     -0.25618297
      4.83500000	     -3.58635851	      9.40917060	     -4.78972489	      0.49545437	      1.01750339	     -0.20909547	     13.25647717	    -13.63434616	     -4.63839728	    -65.74477053	     -3.81484846	     -1.41530446	      0.00000000	     16.50536663	     12.08938424	     -5.40861945	    -13.70720149	      8.11988791	     -8.15347509	      0.00000000	     -6.31314557	    -12.69724202	     -0.49185813
      4.84000000	     -3.52687560	      9.30452983	     -4.69940042	      0.50174884	      1.01857276	     -0.20974888	     13.91403002	    -13.50886188	     -4.70540557	    -66.21049941	     -2.64064398	     -1.30272437	      0.00000000	     15.81705073	     12.13802461	     -5.02609183	    -13.29101897	      8.18733060	     -8.38670849	      0.00000000	     -6.40053100	    -12.50552182	     -0.74470996
      4.84500000	     -3.44345243	      9.22227964	     -4.58265057	      0.50809408	      1.01969308	     -0.21043408	     14.52371107	    -13.42090810	     -4.82854903	    -66.59350828	     -1.53181095	     -1.22530643	      0.00000000	     15.05508706	     12.22528854	     -4.47737690	    -12.78872789	      8.11679669	     -8.75314671	      0.00000000	     -6.50751596	    -12.34551623	     -1.00889183
      4.85000000	     -3.37038696	      9.09257586	     -4.44893719	      0.51440318	      1.02080057	     -0.21111186	     15.12205474	    -13.28030858	     -4.98109119	    -66.90186962	     -0.47116289	     -1.10678769	      0.00000000	     14.30762759	     12.25368602	     -3.98050764	    -12.30344060	      8.09048672	     -9.06106877	      0.00000000	     -6.60671381	    -12.13004535	     -1.28520508
      4.85500000	     -3.29960978	      8.94715953	     -4.29827273	      0.52071197	      1.02190159	     -0.21179217	     15.70183781	    -13.12263661	     -5.16112724	    -67.13477812	      0.52398649	     -0.98977299	      0.00000000	     13.54866988	     12.26201247	     -3.45711624	    -11.79936549	      8.04641547	     -9.37778623	      0.00000000	     -6.70372944	    -11.89690326	     -1.56519543
      4.86000000	     -3.23685036	      8.78150209	     -4.13418921	      0.52700793	      1.02298146	     -0.21247423	     16.27129219	    -12.94411382	     -5.36719486	    -67.29731941	      1.46664010	     -0.85543378	      0.00000000	     12.79310930	     12.24135648	     -2.95012342	    -11.28990089	      8.00079867	     -9.67021509	      0.00000000	     -6.78907825	    -11.63952550	     -1.85028304
      4.86500000	     -3.16636936	      8.61245824	     -3.95483051	      0.53328850	      1.02404209	     -0.21315150	     16.81702482	    -12.76052900	     -5.59170403	    -67.39418400	      2.34621815	     -0.73086916	      0.00000000	     12.01214354	     12.21274621	     -2.37546943	    -10.75284717	      7.93876939	     -9.98859570	      0.00000000	     -6.88983812	    -11.38058440	     -2.12969417
      4.87000000	     -3.11527669	      8.42411425	     -3.76389313	      0.53955386	      1.02506951	     -0.21380871	     17.36261606	    -12.55249290	     -5.83333862	    -67.42053587	      3.20193244	     -0.57261045	      0.00000000	     11.25486831	     12.14958823	     -1.85426867	    -10.22324090	      7.87529867	    -10.24716987	      0.00000000	     -6.96563264	    -11.10385359	     -2.41081757
      4.87500000	     -3.07743148	      8.22308487	     -3.56465526	      0.54581029	      1.02605135	     -0.21445814	     17.90546501	    -12.32634663	     -6.08318476	    -67.38075669	      4.02741356	     -0.39251727	      0.00000000	     10.50854811	     12.06274301	     -1.34849485	     -9.68788357	      7.81295926	    -10.48479471	      0.00000000	     -7.02450383	    -10.81221005	     -2.68931275
      4.88000000	     -3.03640604	      8.01919417	     -3.36249310	      0.55204539	      1.02698826	     -0.21509790	     18.43428873	    -12.09463870	     -6.33970412	    -67.28106231	      4.82777676	     -0.20994558	      0.00000000	      9.75077158	     11.96448405	     -0.79791498	     -9.13800260	      7.74708814	    -10.74112505	      0.00000000	     -7.08954256	    -10.52048193	     -2.95851765
      4.88500000	     -3.01416963	      7.80293652	     -3.15308683	      0.55826711	      1.02787872	     -0.21571590	     18.96373597	    -11.84095053	     -6.59454234	    -67.11150313	      5.62511807	      0.01261897	      0.00000000	      9.01859319	     11.84075144	     -0.29855334	     -8.59425071	      7.67956828	    -10.95830540	      0.00000000	     -7.13210937	    -10.21523222	     -3.22571293
      4.89000000	     -2.99937527	      7.57829919	     -2.93820697	      0.56447457	      1.02871376	     -0.21632963	     19.48613333	    -11.57637384	     -6.85487723	    -66.87929174	      6.42305172	      0.25926564	      0.00000000	      8.29189158	     11.69920759	      0.20666003	     -8.04303844	      7.60132860	    -11.18374803	      0.00000000	     -7.16766505	     -9.90131394	     -3.49467098
      4.89500000	     -2.98611077	      7.35048930	     -2.72179276	      0.57066518	      1.02949691	     -0.21691838	     19.99503848	    -11.30040789	     -7.11096383	    -66.58083424	      7.22535509	      0.51766024	      0.00000000	      7.56491831	     11.54484026	      0.73477636	     -7.48501754	      7.51213998	    -11.43124557	      0.00000000	     -7.20204462	     -9.58645783	     -3.75375244
      4.90000000	     -2.98170048	      7.11424847	     -2.50422523	      0.57683010	      1.03022175	     -0.21749211	     20.49844387	    -11.00861662	     -7.36017384	    -66.21612335	      8.03728567	      0.79977784	      0.00000000	      6.85153998	     11.37209594	      1.25361755	     -6.92816734	      7.41587570	    -11.68788320	      0.00000000	     -7.22911887	     -9.26279239	     -4.01353809
      4.90500000	     -2.97284706	      6.87422343	     -2.28662405	      0.58297797	      1.03088782	     -0.21804779	     20.98255780	    -10.70802403	     -7.60794542	    -65.78597824	      8.85357902	      1.08150588	      0.00000000	      6.12929117	     11.18672523	      1.81889146	     -6.35986468	      7.30569881	    -11.99297174	      0.00000000	     -7.26204758	     -8.93710576	     -4.25907480
      4.91000000	     -2.98146840	      6.62740951	     -2.06552809	      0.58911405	      1.03147723	     -0.21860757	     21.46972865	    -10.39556830	     -7.84584240	    -65.29096173	      9.67036027	      1.39213553	      0.00000000	      5.43647127	     10.98754241	      2.31643039	     -5.80124458	      7.20844313	    -12.28106192	      0.00000000	     -7.27316399	     -8.59627476	     -4.53790453
      4.91500000	     -3.04891836	      6.38824657	     -1.93177256	      0.59513695	      1.03192108	     -0.21893449	     22.03986192	    -10.02592553	     -7.95796270	    -64.73792849	     10.49236528	      1.67703148	      0.00000000	      4.85844955	     10.76591304	      2.59073716	     -5.31268821	      7.23735887	    -12.33270388	      0.00000000	     -7.21999423	     -8.28794487	     -4.66177356
      4.92000000	     -3.00590292	      6.12779185	     -1.59514160	      0.60124732	      1.03250504	     -0.21964227	     22.39616742	     -9.74854927	     -8.32771736	    -64.08355601	     11.29019077	      1.96304649	      0.00000000	      4.07668034	     10.55083023	      3.39208547	     -4.70023811	      6.95930200	    -12.88702669	      0.00000000	     -7.31804626	     -7.92934972	     -5.05828732
      4.92500000	     -2.99841958	      5.87934545	     -1.39546738	      0.60731187	      1.03293943	     -0.22011411	     22.82302542	     -9.41027557	     -8.52488315	    -63.38336073	     12.06771029	      2.23369163	      0.00000000	      3.37045536	     10.32204011	      3.90923130	     -4.12197897	      6.80626503	    -13.25877303	      0.00000000	     -7.35665804	     -7.59490915	     -5.28930804
      4.93000000	     -3.01524149	      5.63491004	     -1.16584545	      0.61333236	      1.03328455	     -0.22058802	     23.25574095	     -9.08291373	     -8.74390087	    -62.62037687	     12.80926086	      2.47569422	      0.00000000	      2.70893652	     10.08856920	      4.39063681	     -3.57481675	      6.70246839	    -13.54415828	      0.00000000	     -7.37565609	     -7.26641260	     -5.56178446
      4.93500000	     -3.02690616	      5.39780061	     -0.94538754	      0.61933601	      1.03357432	     -0.22103082	     23.66818996	     -8.75811149	     -8.94986623	    -61.79300218	     13.51503221	      2.68451007	      0.00000000	      2.04547117	      9.85405169	      4.85296274	     -3.02476347	      6.58749109	    -13.83119311	      0.00000000	     -7.40256925	     -6.94816941	     -5.81563607
      4.94000000	     -3.03809066	      5.17001042	     -0.72420061	      0.62531885	      1.03379968	     -0.22145995	     24.06468078	     -8.44459794	     -9.15499309	    -60.90540276	     14.17391802	      2.85846142	      0.00000000	      1.39047214	      9.62207860	      5.28826057	     -2.48363881	      6.48503547	    -14.09662323	      0.00000000	     -7.43209571	     -6.64108276	     -6.07193878
      4.94500000	     -3.12346413	      4.98985043	     -0.58021042	      0.63124779	      1.03381951	     -0.22173865	     24.55994282	     -8.13863269	     -9.23869765	    -59.99111756	     14.82111897	      3.05651585	      0.00000000	      0.86440874	      9.43485393	      5.44248195	     -2.01137421	      6.52181481	    -14.13173864	      0.00000000	     -7.36751707	     -6.40396839	     -6.24161640
